<svg width="30" height="35" viewBox="0 0 30 35" fill="none" xmlns="http://www.w3.org/2000/svg">
<mask id="mask0_335_5374" style="mask-type:luminance" maskUnits="userSpaceOnUse" x="0" y="0" width="31" height="17">
<path d="M14.3226 16.1685C14.1548 14.259 13.3313 12.4709 11.9971 11.1189C10.6628 9.76687 8.90333 8.93748 7.02807 8.77664C7.19739 10.6856 8.02133 12.4728 9.35526 13.8246C10.6892 15.1763 12.4479 16.0062 14.3226 16.1685ZM15.678 16.1685C17.5527 16.0062 19.3114 15.1763 20.6453 13.8246C21.9793 12.4728 22.8032 10.6856 22.9725 8.77664C21.0973 8.93748 19.3378 9.76687 18.0035 11.1189C16.6693 12.4709 15.8458 14.259 15.678 16.1685ZM22.7061 16.078C24.5808 15.9157 26.3395 15.0858 27.6734 13.7341C29.0074 12.3823 29.8313 10.5951 30.0006 8.68616C28.1256 8.84776 26.3665 9.67739 25.0324 11.0293C23.6984 12.3812 22.8747 14.1688 22.7061 16.078ZM7.29452 16.078C7.12521 14.1691 6.30127 12.3819 4.96733 11.0301C3.6334 9.67839 1.87472 8.84851 0 8.68616C0.168575 10.5954 0.992277 12.383 2.32636 13.7349C3.66044 15.0868 5.41953 15.9164 7.29452 16.078ZM13.0676 8.08033C13.0633 10.0296 13.7488 11.915 14.9984 13.3912C16.2476 11.9144 16.9347 10.0298 16.9347 8.08033C16.9347 6.13089 16.2476 4.24625 14.9984 2.7695C13.7511 4.24549 13.0659 6.12884 13.0676 8.0764M14.3226 0C12.4476 0.161598 10.6885 0.991236 9.35443 2.34312C8.02035 3.69501 7.19665 5.48265 7.02807 7.39189C8.90333 7.23105 10.6628 6.40165 11.9971 5.04962C13.3313 3.69758 14.1548 1.90952 14.3226 0ZM15.678 0C15.8458 1.90952 16.6693 3.69758 18.0035 5.04962C19.3378 6.40165 21.0973 7.23105 22.9725 7.39189C22.8032 5.48292 21.9793 3.69571 20.6453 2.34398C19.3114 0.992236 17.5527 0.162354 15.678 0Z" fill="white"/>
</mask>
<g mask="url(#mask0_335_5374)">
<path d="M30.0006 0H0V16.1685H30.0006V0Z" fill="url(#paint0_linear_335_5374)"/>
</g>
<path d="M28.2795 28.3399C28.2804 28.5249 28.3283 28.7065 28.4186 28.867H28.0324V29.5122H29.9786V28.867H29.0519C28.9797 28.7487 28.9398 28.6129 28.936 28.4736C28.936 28.1904 29.133 28.0802 29.411 28.0802C29.5411 28.0797 29.6708 28.0955 29.7971 28.1275L29.913 27.5059C29.7202 27.4621 29.5235 27.4383 29.326 27.4351C29.1975 27.4154 29.0663 27.424 28.9412 27.4603C28.8162 27.4966 28.7002 27.5597 28.6011 27.6454C28.502 27.7311 28.422 27.8374 28.3665 27.9572C28.3111 28.077 28.2814 28.2074 28.2795 28.3399ZM5.05601 22.4704V25.3107C5.05601 26.7899 4.3532 27.2777 3.22562 27.2777C2.09804 27.2777 1.39137 26.6798 1.39137 25.5153C1.40063 24.9734 1.5148 24.4386 1.72733 23.9417L0.537959 23.5523C0.215468 24.2302 0.039038 24.9707 0.0205078 25.7238C0.0205078 27.1558 1.00135 28.5759 3.19086 28.5759C5.07918 28.5759 6.41528 27.6593 6.41528 25.6648V22.4704H5.05601ZM2.59232 20.9716C2.58912 21.0708 2.60588 21.1697 2.64157 21.262C2.67726 21.3544 2.73113 21.4384 2.79985 21.5087C2.86858 21.5791 2.95071 21.6344 3.04119 21.6713C3.13168 21.7081 3.22861 21.7257 3.32602 21.723C3.4226 21.7259 3.51871 21.7083 3.60823 21.6712C3.69775 21.6342 3.7787 21.5785 3.84592 21.5078C3.91315 21.4371 3.96516 21.3529 3.99865 21.2606C4.03214 21.1683 4.04636 21.0698 4.04041 20.9716C4.04598 20.8744 4.03134 20.777 3.99746 20.6859C3.96358 20.5949 3.91122 20.5121 3.8438 20.443C3.77637 20.374 3.69541 20.3202 3.60618 20.2852C3.51696 20.2502 3.4215 20.2347 3.32602 20.2399C3.22888 20.2343 3.13168 20.2495 3.04068 20.2846C2.94969 20.3196 2.86693 20.3738 2.79778 20.4435C2.72862 20.5132 2.67459 20.5969 2.6392 20.6893C2.60381 20.7816 2.58784 20.8805 2.59232 20.9795M7.93674 18.8237V24.3312C7.93674 25.8104 8.6048 26.5263 10.4931 26.5263H11.6052C12.5166 26.5263 13.0572 26.3021 13.3816 25.9756C13.7677 26.4083 14.3586 26.5263 15.015 26.5263C15.6233 26.5725 16.2255 26.3765 16.6948 25.9795C17.1246 26.3527 17.6749 26.5504 18.2394 26.5342C18.5557 26.5529 18.8722 26.5006 19.1665 26.381C19.4608 26.2613 19.7257 26.0773 19.9424 25.8418C20.2475 26.2746 20.7765 26.5342 21.6183 26.5342H26.6615C27.3064 23.6113 26.6036 21.4987 23.7692 21.4987C23.232 21.5006 22.6987 21.5909 22.1898 21.7663L22.491 22.9464C22.8687 22.8414 23.258 22.7859 23.6495 22.7812C25.449 22.7812 25.6421 24.2722 25.4722 25.295H21.6106C20.8383 25.295 20.3749 24.9291 20.3749 24.1148V21.6168H19.0118V24.0794C19.0118 24.9016 18.8303 25.2793 18.0695 25.2793C17.4594 25.2793 17.1466 25.0196 17.1466 24.4925V22.4704H15.7989V24.1148C15.7989 24.9724 15.5595 25.295 14.8412 25.295C14.3006 25.295 13.9454 25.0826 13.9454 24.5082V22.4704H12.5861V24.1148C12.5861 24.9724 12.3312 25.295 11.6052 25.295H10.4931C9.65129 25.295 9.29602 24.9882 9.29602 24.3076V18.8158L7.93674 18.8237ZM28.3297 26.5342H29.689V18.8158H28.3297V26.5342Z" fill="#074367"/>
<path d="M0.0888672 33.3242C0.0903397 33.1904 0.112493 33.0576 0.154514 32.9308L0.359178 32.9859C0.332483 33.0807 0.316928 33.1784 0.312839 33.277C0.312839 33.576 0.53681 33.6979 1.01951 33.6979C1.50221 33.6979 1.71459 33.5839 1.71459 33.4265C1.71459 33.1747 1.01565 33.1433 1.01565 32.7066C1.01565 32.443 1.23189 32.2502 1.59102 32.2502C1.69273 32.2527 1.79382 32.2672 1.89222 32.2935L1.85361 32.506C1.76582 32.4797 1.67479 32.4665 1.5833 32.4666C1.36705 32.4666 1.24348 32.5571 1.24348 32.6948C1.24348 33.0056 1.93856 32.982 1.93856 33.4029C1.93565 33.482 1.91092 33.5586 1.86721 33.624C1.82349 33.6894 1.76257 33.7409 1.69142 33.7727C1.48243 33.8759 1.25154 33.9245 1.01951 33.9143C0.401655 33.934 0.0888672 33.7294 0.0888672 33.3242ZM0.671966 34.3234C0.671432 34.3047 0.674663 34.286 0.68146 34.2686C0.688258 34.2512 0.698478 34.2353 0.711495 34.2221C0.724512 34.2088 0.740051 34.1984 0.757158 34.1915C0.774266 34.1846 0.792582 34.1813 0.810983 34.1818C0.847852 34.1818 0.883212 34.1967 0.909282 34.2233C0.935353 34.2499 0.949999 34.2859 0.949999 34.3234C0.949999 34.361 0.935353 34.397 0.909282 34.4236C0.883212 34.4501 0.847852 34.4651 0.810983 34.4651C0.792582 34.4656 0.774266 34.4623 0.757158 34.4554C0.740051 34.4485 0.724512 34.438 0.711495 34.4248C0.698478 34.4115 0.688258 34.3957 0.68146 34.3783C0.674663 34.3608 0.671432 34.3422 0.671966 34.3234ZM1.05812 34.3234C1.05812 34.2954 1.06628 34.268 1.08155 34.2448C1.09683 34.2215 1.11854 34.2033 1.14394 34.1926C1.16934 34.1819 1.19729 34.1791 1.22426 34.1845C1.25123 34.19 1.276 34.2035 1.29544 34.2233C1.31488 34.2431 1.32812 34.2683 1.33349 34.2958C1.33885 34.3233 1.3361 34.3518 1.32558 34.3776C1.31505 34.4035 1.29724 34.4256 1.27437 34.4412C1.25151 34.4568 1.22464 34.4651 1.19714 34.4651C1.17874 34.4656 1.16042 34.4623 1.14332 34.4554C1.12621 34.4485 1.11067 34.438 1.09765 34.4248C1.08464 34.4115 1.07442 34.3957 1.06762 34.3783C1.06082 34.3608 1.05759 34.3422 1.05812 34.3234Z" fill="#074367"/>
<path d="M3.09789 33.2534C3.13265 33.2534 3.15196 33.2888 3.15196 33.3596C3.15196 33.4304 3.15196 33.4658 3.09789 33.4658H2.71174C2.69172 33.6036 2.62454 33.7297 2.52208 33.8218C2.41961 33.914 2.28845 33.9662 2.15181 33.9694L2.10547 33.7609C2.39509 33.7176 2.49163 33.5917 2.49163 33.2927V32.3014H2.71174V33.2534H3.09789Z" fill="#074367"/>
<path d="M4.06993 33.3596C4.06993 33.4304 4.05062 33.4658 4.01201 33.4658C3.92653 33.4765 3.83981 33.4635 3.76098 33.4282C3.68215 33.3929 3.61412 33.3366 3.56406 33.2652C3.51119 33.3354 3.44157 33.3907 3.36183 33.4258C3.28208 33.461 3.19484 33.4747 3.1084 33.4658V33.2534C3.33623 33.2534 3.42119 33.1433 3.42119 32.86V32.3014H3.6413V32.9269C3.6413 33.1433 3.76101 33.2534 4.00428 33.2534C4.0429 33.2534 4.06221 33.2888 4.06221 33.3596M3.44436 33.8553C3.44771 33.8756 3.44668 33.8964 3.44134 33.9163C3.436 33.9361 3.42647 33.9545 3.41342 33.9703C3.40037 33.986 3.38411 33.9986 3.36578 34.0073C3.34745 34.016 3.32748 34.0204 3.30727 34.0204C3.28706 34.0204 3.26709 34.016 3.24876 34.0073C3.23043 33.9986 3.21417 33.986 3.20112 33.9703C3.18807 33.9545 3.17854 33.9361 3.1732 33.9163C3.16786 33.8964 3.16683 33.8756 3.17018 33.8553C3.16683 33.835 3.16786 33.8142 3.1732 33.7943C3.17854 33.7745 3.18807 33.7561 3.20112 33.7403C3.21417 33.7246 3.23043 33.712 3.24876 33.7033C3.26709 33.6946 3.28706 33.6902 3.30727 33.6902C3.32748 33.6902 3.34745 33.6946 3.36578 33.7033C3.38411 33.712 3.40037 33.7246 3.41342 33.7403C3.42647 33.7561 3.436 33.7745 3.44134 33.7943C3.44668 33.8142 3.44771 33.835 3.44436 33.8553ZM3.83051 33.8553C3.83157 33.8735 3.82895 33.8918 3.82283 33.9089C3.8167 33.9261 3.8072 33.9417 3.7949 33.955C3.7826 33.9683 3.76777 33.9788 3.75131 33.986C3.73486 33.9933 3.71713 33.997 3.69922 33.9969C3.68114 33.9969 3.66325 33.9932 3.64659 33.9861C3.62994 33.9789 3.61486 33.9684 3.60226 33.9552C3.58966 33.942 3.57978 33.9264 3.57322 33.9092C3.56666 33.892 3.56355 33.8737 3.56406 33.8553C3.5635 33.8362 3.56684 33.8172 3.57387 33.7995C3.5809 33.7818 3.59147 33.7658 3.60491 33.7525C3.61834 33.7391 3.63436 33.7288 3.65192 33.7221C3.66949 33.7155 3.68823 33.7126 3.70694 33.7137C3.72485 33.7136 3.74258 33.7173 3.75904 33.7246C3.77549 33.7318 3.79032 33.7423 3.80262 33.7556C3.81492 33.7689 3.82442 33.7845 3.83055 33.8017C3.83667 33.8188 3.83929 33.8371 3.83824 33.8553" fill="#074367"/>
<path d="M5.54463 33.2534C5.57939 33.2534 5.59869 33.2888 5.59869 33.3596C5.59869 33.4304 5.59869 33.4658 5.54463 33.4658H4V33.2534H4.97698C5.02718 33.0056 5.01173 32.4666 4.44794 32.4666C4.34577 32.47 4.24449 32.4872 4.14674 32.5177L4.09654 32.3171C4.2206 32.2727 4.35118 32.25 4.4827 32.2502C4.59708 32.2397 4.71224 32.2586 4.81753 32.3054C4.92282 32.3522 5.01484 32.4252 5.0851 32.5177C5.20665 32.7346 5.24646 32.9891 5.19709 33.2337L5.54463 33.2534ZM4.35527 31.7978C4.35191 31.7775 4.35294 31.7567 4.35828 31.7369C4.36362 31.717 4.37315 31.6986 4.3862 31.6829C4.39925 31.6671 4.41551 31.6545 4.43384 31.6458C4.45217 31.6372 4.47214 31.6327 4.49235 31.6327C4.51256 31.6327 4.53253 31.6372 4.55086 31.6458C4.56919 31.6545 4.58545 31.6671 4.5985 31.6829C4.61155 31.6986 4.62108 31.717 4.62642 31.7369C4.63176 31.7567 4.63279 31.7775 4.62944 31.7978C4.63043 31.8351 4.61808 31.8715 4.59468 31.9001C4.51745 31.9827 4.33982 31.9237 4.35527 31.7978Z" fill="#074367"/>
<path d="M5.5459 33.2535C5.59201 33.2591 5.63876 33.255 5.68326 33.2415C5.72776 33.2279 5.76906 33.2053 5.80462 33.1748C5.85321 33.0819 5.87465 32.9768 5.86641 32.8719V31.2983H6.08266V32.9624C6.08266 33.2889 5.90503 33.4581 5.5459 33.4581V33.2535Z" fill="#074367"/>
<path d="M6.72304 31.3062H6.50293V33.4659H6.72304V31.3062Z" fill="#074367"/>
<path d="M9.65448 33.2535C9.68923 33.2535 9.70854 33.2889 9.70854 33.3597C9.70854 33.4305 9.68923 33.4659 9.65448 33.4659H9.31466C9.26024 33.6147 9.15932 33.7411 9.02743 33.8257C8.89555 33.9103 8.74003 33.9483 8.58482 33.934C8.38882 33.9441 8.19616 33.8796 8.0442 33.7531C7.97172 33.6951 7.91318 33.621 7.87303 33.5364C7.83288 33.4519 7.81218 33.3592 7.8125 33.2653C7.8174 33.0895 7.85816 32.9166 7.93221 32.7578L8.12529 32.8286C8.07676 32.9627 8.04687 33.1031 8.03648 33.2456C8.03648 33.5603 8.21411 33.7177 8.56937 33.7177C8.92464 33.7177 9.10613 33.5406 9.11386 33.1866V31.3062H9.35714V33.2731L9.65448 33.2535Z" fill="#074367"/>
<path d="M11.2897 33.2534C11.3245 33.2534 11.3438 33.2888 11.3438 33.3596C11.3438 33.4305 11.3245 33.4659 11.2897 33.4659H10.8611C10.7226 33.5723 10.5516 33.6252 10.3784 33.6154H10.2123C10.1557 33.5728 10.105 33.5225 10.0617 33.4659H9.65625V33.2534H9.94201C9.91107 33.1705 9.89537 33.0825 9.89567 32.9938C9.89316 32.9127 9.90733 32.8319 9.93725 32.7567C9.96718 32.6815 10.0122 32.6136 10.0694 32.5571C10.1297 32.5007 10.2003 32.4571 10.2771 32.4288C10.354 32.4004 10.4357 32.3879 10.5174 32.3919C10.5957 32.3852 10.6745 32.3978 10.7471 32.4286C10.8197 32.4594 10.8839 32.5075 10.9344 32.5689C11.0251 32.6923 11.0715 32.8437 11.0657 32.9977C11.0677 33.0849 11.0533 33.1717 11.0232 33.2534H11.2897ZM10.4402 33.4029C10.4955 33.4065 10.5509 33.3979 10.6027 33.3777C10.6545 33.3575 10.7014 33.3262 10.7402 33.2859C10.7791 33.2456 10.8089 33.1972 10.8278 33.1441C10.8466 33.091 10.854 33.0343 10.8495 32.9781C10.8553 32.9292 10.8504 32.8797 10.8353 32.8331C10.8201 32.7864 10.7951 32.7437 10.7619 32.708C10.7287 32.6723 10.6882 32.6445 10.6433 32.6266C10.5983 32.6087 10.5501 32.6011 10.5019 32.6043C10.4499 32.5988 10.3973 32.6051 10.3479 32.6229C10.2986 32.6407 10.2538 32.6695 10.2168 32.7072C10.1798 32.7449 10.1515 32.7906 10.134 32.8408C10.1165 32.8911 10.1103 32.9447 10.1158 32.9977C10.1174 33.1454 10.1756 33.2865 10.278 33.3911L10.4402 33.4029Z" fill="#074367"/>
<path d="M12.9206 33.2535C12.9553 33.2535 12.9785 33.2889 12.9785 33.3597C12.9785 33.4305 12.9553 33.4659 12.9206 33.4659H12.7352C12.5056 33.4711 12.2768 33.4352 12.0594 33.3597C11.8413 33.4378 11.6108 33.4738 11.3798 33.4659H11.2871V33.2535H11.4223C11.5836 33.2585 11.7449 33.24 11.9011 33.1984C11.8239 33.0961 11.7428 32.9977 11.6231 32.8601L11.484 32.7027C11.4917 32.621 11.5086 32.5405 11.5343 32.4627C11.713 32.3425 11.9224 32.2782 12.1367 32.2778C12.4688 32.2778 12.6811 32.4352 12.6811 32.7027C12.6739 32.8104 12.6391 32.9143 12.5801 33.0041C12.5212 33.0938 12.4402 33.1662 12.3452 33.2141C12.4722 33.2412 12.6016 33.2544 12.7313 33.2535H12.9206ZM11.6733 32.6201C11.8405 32.7673 11.9919 32.9322 12.1251 33.1118C12.3375 33.0056 12.4649 32.8719 12.4649 32.7184C12.4649 32.565 12.3336 32.4785 12.098 32.4785C11.9505 32.4796 11.8057 32.5189 11.6771 32.5925L11.6733 32.6201Z" fill="#074367"/>
<path d="M13.8795 33.3597C13.8795 33.4305 13.8602 33.4659 13.8255 33.4659C13.7418 33.4756 13.6571 33.4633 13.5794 33.4303C13.5016 33.3973 13.4335 33.3445 13.3814 33.2771C13.3271 33.3461 13.2564 33.3997 13.1759 33.4328C13.0954 33.4658 13.0079 33.4773 12.9219 33.4659V33.2535C12.968 33.2596 13.0149 33.2557 13.0594 33.2422C13.104 33.2286 13.1453 33.2057 13.1806 33.1748C13.2309 33.0826 13.2525 32.9769 13.2424 32.8719V31.2983H13.4625V32.9191C13.4625 33.1355 13.5822 33.2456 13.8255 33.2456C13.8602 33.2456 13.8795 33.2811 13.8795 33.3519" fill="#074367"/>
<path d="M13.8242 33.2535C13.8703 33.2591 13.9171 33.255 13.9616 33.2415C14.0061 33.2279 14.0474 33.2053 14.0829 33.1748C14.1333 33.0826 14.1548 32.9769 14.1447 32.8719V31.2983H14.3764V32.9624C14.3764 33.2889 14.1988 33.4581 13.8397 33.4581L13.8242 33.2535Z" fill="#074367"/>
<path d="M16.9651 33.3595C16.9651 33.4304 16.9458 33.4658 16.911 33.4658C16.6562 33.4658 16.4978 33.4146 16.4399 33.3163C16.3193 33.3746 16.1873 33.4042 16.0538 33.4028C15.6985 33.4028 15.4668 33.214 15.4668 32.8914C15.4668 32.5688 15.7178 32.3013 16.1348 32.3013H16.606V32.9662C16.606 33.1943 16.6832 33.2533 16.911 33.2533C16.9458 33.2533 16.9651 33.2887 16.9651 33.3595ZM16.3781 32.5137H16.0924C15.853 32.5137 15.7062 32.6396 15.7062 32.8678C15.7062 33.096 15.8336 33.1865 16.0924 33.1865C16.1984 33.191 16.3038 33.1666 16.3974 33.1156L16.3781 32.5137ZM15.795 31.8292C15.795 31.8011 15.8033 31.7735 15.8188 31.7502C15.8342 31.7268 15.8562 31.7087 15.8818 31.6981C15.9074 31.6875 15.9356 31.6849 15.9626 31.6907C15.9897 31.6965 16.0144 31.7104 16.0337 31.7306C16.053 31.7508 16.0659 31.7764 16.0708 31.8041C16.0758 31.8318 16.0725 31.8604 16.0613 31.8862C16.0502 31.912 16.0318 31.9339 16.0084 31.9489C15.9851 31.964 15.9578 31.9716 15.9302 31.9709C15.912 31.9714 15.8938 31.9681 15.8769 31.9612C15.86 31.9542 15.8447 31.9437 15.832 31.9304C15.8192 31.9171 15.8094 31.9012 15.803 31.8838C15.7967 31.8664 15.7939 31.8478 15.795 31.8292ZM16.1812 31.8292C16.1812 31.8012 16.1893 31.7739 16.2046 31.7506C16.2199 31.7273 16.2416 31.7091 16.267 31.6984C16.2924 31.6877 16.3204 31.6849 16.3473 31.6903C16.3743 31.6958 16.3991 31.7093 16.4185 31.7291C16.4379 31.7489 16.4512 31.7741 16.4566 31.8016C16.4619 31.8291 16.4592 31.8576 16.4486 31.8834C16.4381 31.9093 16.4203 31.9314 16.3974 31.947C16.3746 31.9626 16.3477 31.9709 16.3202 31.9709C16.3018 31.9714 16.2835 31.9681 16.2664 31.9612C16.2493 31.9543 16.2337 31.9439 16.2207 31.9306C16.2077 31.9173 16.1975 31.9015 16.1907 31.8841C16.1839 31.8667 16.1807 31.848 16.1812 31.8292Z" fill="#074367"/>
<path d="M17.8835 33.3596C17.8835 33.4304 17.8641 33.4658 17.8255 33.4658C17.7401 33.4761 17.6535 33.4629 17.5748 33.4276C17.496 33.3924 17.4279 33.3363 17.3776 33.2652C17.3258 33.3357 17.257 33.3913 17.1777 33.4264C17.0985 33.4616 17.0117 33.4752 16.9258 33.4658V33.2534C17.1536 33.2534 17.2386 33.1433 17.2386 32.86V32.3014H17.4664V32.9269C17.4664 33.1433 17.5861 33.2534 17.8294 33.2534C17.868 33.2534 17.8873 33.2888 17.8873 33.3596M17.2617 33.8553C17.2623 33.874 17.259 33.8927 17.2522 33.9101C17.2454 33.9276 17.2352 33.9434 17.2222 33.9567C17.2092 33.9699 17.1937 33.9803 17.1765 33.9872C17.1594 33.9942 17.1411 33.9975 17.1227 33.9969C17.1046 33.9969 17.0867 33.9932 17.0701 33.9861C17.0534 33.9789 17.0384 33.9684 17.0258 33.9552C17.0132 33.942 17.0033 33.9264 16.9967 33.9092C16.9902 33.892 16.987 33.8737 16.9876 33.8553C16.9842 33.835 16.9852 33.8142 16.9906 33.7943C16.9959 33.7745 17.0055 33.7561 17.0185 33.7403C17.0316 33.7246 17.0478 33.712 17.0661 33.7033C17.0845 33.6946 17.1044 33.6902 17.1247 33.6902C17.1449 33.6902 17.1648 33.6946 17.1832 33.7033C17.2015 33.712 17.2178 33.7246 17.2308 33.7403C17.2439 33.7561 17.2534 33.7745 17.2587 33.7943C17.2641 33.8142 17.2651 33.835 17.2617 33.8553ZM17.6479 33.8553C17.6513 33.8756 17.6502 33.8964 17.6449 33.9163C17.6395 33.9361 17.63 33.9545 17.617 33.9703C17.6039 33.986 17.5877 33.9986 17.5693 34.0073C17.551 34.016 17.531 34.0204 17.5108 34.0204C17.4906 34.0204 17.4706 34.016 17.4523 34.0073C17.434 33.9986 17.4177 33.986 17.4047 33.9703C17.3916 33.9545 17.3821 33.9361 17.3767 33.9163C17.3714 33.8964 17.3704 33.8756 17.3737 33.8553C17.3704 33.835 17.3714 33.8142 17.3767 33.7943C17.3821 33.7745 17.3916 33.7561 17.4047 33.7403C17.4177 33.7246 17.434 33.712 17.4523 33.7033C17.4706 33.6946 17.4906 33.6902 17.5108 33.6902C17.531 33.6902 17.551 33.6946 17.5693 33.7033C17.5877 33.712 17.6039 33.7246 17.617 33.7403C17.63 33.7561 17.6395 33.7745 17.6449 33.7943C17.6502 33.8142 17.6513 33.835 17.6479 33.8553Z" fill="#074367"/>
<path d="M18.8022 33.3598C18.8022 33.4306 18.7829 33.466 18.7481 33.466C18.6621 33.477 18.5747 33.4641 18.4952 33.4288C18.4157 33.3935 18.347 33.337 18.2963 33.2653C18.2413 33.3371 18.169 33.3933 18.0865 33.4284C18.004 33.4636 17.914 33.4765 17.8252 33.466V33.2535C18.0723 33.2535 18.165 33.1513 18.165 32.8601V32.3015H18.3813V32.927C18.3813 33.1434 18.501 33.2535 18.7674 33.2535C18.8022 33.2535 18.8215 33.2889 18.8215 33.3598M18.1534 31.8295C18.1501 31.8091 18.1511 31.7883 18.1564 31.7685C18.1618 31.7486 18.1713 31.7302 18.1844 31.7145C18.1974 31.6988 18.2137 31.6861 18.232 31.6775C18.2503 31.6688 18.2703 31.6643 18.2905 31.6643C18.3107 31.6643 18.3307 31.6688 18.349 31.6775C18.3674 31.6861 18.3836 31.6988 18.3967 31.7145C18.4097 31.7302 18.4192 31.7486 18.4246 31.7685C18.4299 31.7883 18.431 31.8091 18.4276 31.8295C18.4284 31.8483 18.4254 31.8671 18.4187 31.8847C18.4121 31.9023 18.402 31.9183 18.389 31.9317C18.3156 32.0143 18.138 31.9553 18.1534 31.8295Z" fill="#074367"/>
<path d="M20.675 32.4744C20.7849 32.6208 20.8409 32.8017 20.8333 32.9858C20.8328 33.149 20.8068 33.311 20.7561 33.4658H18.748V33.2534H19.0106V31.2864H19.2307V32.8836C19.331 32.7068 19.4712 32.5571 19.6399 32.4469C19.8085 32.3368 20.0005 32.2693 20.2 32.2502C20.2871 32.2443 20.3743 32.2598 20.4543 32.2954C20.5342 32.331 20.6046 32.3856 20.6595 32.4548M20.563 33.2415C20.5857 33.1556 20.5973 33.067 20.5977 32.978C20.5977 32.6829 20.451 32.4744 20.1768 32.4744C19.9986 32.4851 19.8288 32.5556 19.6941 32.6751C19.5056 32.83 19.3505 33.0228 19.2385 33.2415H20.563Z" fill="#074367"/>
<path d="M21.3284 33.7528C21.7956 33.7843 22.0273 33.6663 22.0273 33.4027C21.9326 33.4457 21.8298 33.4672 21.7261 33.4656C21.65 33.4733 21.5732 33.4639 21.5011 33.4382C21.4289 33.4124 21.3631 33.3709 21.3083 33.3166C21.2535 33.2623 21.211 33.1964 21.1838 33.1237C21.1566 33.0509 21.1453 32.9729 21.1507 32.8952C21.1463 32.7338 21.2014 32.5766 21.3052 32.4546C21.378 32.3686 21.4752 32.3075 21.5833 32.2799C21.6915 32.2523 21.8054 32.2595 21.9095 32.3004C22.0135 32.3413 22.1026 32.414 22.1644 32.5086C22.2263 32.6031 22.258 32.7148 22.2552 32.8283V33.3594C22.2583 33.4421 22.244 33.5246 22.2134 33.6012C22.1828 33.6779 22.1364 33.747 22.0775 33.804C21.9045 33.9319 21.692 33.992 21.479 33.9731H21.3477L21.3284 33.7528ZM22.0389 33.2217V32.9188C22.0389 32.6434 21.9308 32.5058 21.7145 32.5058C21.6662 32.5058 21.6184 32.5164 21.5744 32.537C21.5305 32.5575 21.4914 32.5875 21.4599 32.6248C21.4284 32.6622 21.4051 32.706 21.3918 32.7534C21.3784 32.8007 21.3752 32.8504 21.3824 32.8991C21.3824 33.147 21.5099 33.2925 21.7686 33.2925C21.8618 33.2951 21.9547 33.2804 22.0428 33.2493" fill="#074367"/>
<path d="M24.8029 33.3596C24.8029 33.4304 24.7836 33.4658 24.745 33.4658C24.4901 33.4658 24.3356 33.4147 24.2739 33.3163C24.1534 33.3752 24.0212 33.4048 23.8877 33.4029C23.5324 33.4029 23.2969 33.2141 23.2969 32.8915C23.2972 32.8061 23.3154 32.7219 23.3503 32.6443C23.3852 32.5668 23.436 32.4977 23.4993 32.4418C23.5626 32.3859 23.6369 32.3445 23.7172 32.3202C23.7975 32.296 23.882 32.2896 23.9649 32.3014H24.4399V32.9662C24.4399 33.1944 24.5171 33.2534 24.7411 33.2534C24.7797 33.2534 24.799 33.2888 24.799 33.3596M24.2121 32.5138H23.9263C23.6908 32.5138 23.5402 32.6397 23.5402 32.8679C23.5402 33.096 23.6714 33.1865 23.9263 33.1865C24.0312 33.1911 24.1353 33.1667 24.2275 33.1157L24.2121 32.5138ZM23.6444 31.8293C23.6439 31.8106 23.6471 31.7919 23.6539 31.7745C23.6607 31.757 23.6709 31.7412 23.6839 31.7279C23.697 31.7147 23.7125 31.7043 23.7296 31.6974C23.7467 31.6904 23.765 31.6871 23.7834 31.6877C23.8203 31.6877 23.8557 31.7026 23.8817 31.7292C23.9078 31.7557 23.9225 31.7917 23.9225 31.8293C23.9225 31.8669 23.9078 31.9029 23.8817 31.9294C23.8557 31.956 23.8203 31.9709 23.7834 31.9709C23.765 31.9715 23.7467 31.9682 23.7296 31.9613C23.7125 31.9543 23.697 31.9439 23.6839 31.9307C23.6709 31.9174 23.6607 31.9016 23.6539 31.8841C23.6471 31.8667 23.6439 31.848 23.6444 31.8293ZM24.0306 31.8293C24.03 31.8106 24.0333 31.7919 24.0401 31.7745C24.0469 31.757 24.0571 31.7412 24.0701 31.7279C24.0831 31.7147 24.0987 31.7043 24.1158 31.6974C24.1329 31.6904 24.1512 31.6871 24.1696 31.6877C24.2065 31.6877 24.2418 31.7026 24.2679 31.7292C24.294 31.7557 24.3086 31.7917 24.3086 31.8293C24.3086 31.8669 24.294 31.9029 24.2679 31.9294C24.2418 31.956 24.2065 31.9709 24.1696 31.9709C24.1512 31.9715 24.1329 31.9682 24.1158 31.9613C24.0987 31.9543 24.0831 31.9439 24.0701 31.9307C24.0571 31.9174 24.0469 31.9016 24.0401 31.8841C24.0333 31.8667 24.03 31.848 24.0306 31.8293Z" fill="#074367"/>
<path d="M27.506 33.2536C27.5446 33.2536 27.5639 33.289 27.5639 33.3598C27.5639 33.4306 27.5446 33.466 27.506 33.466H25.5289C25.4566 33.4777 25.3825 33.4693 25.3145 33.4416C25.2465 33.4139 25.1871 33.3679 25.1427 33.3086C25.0809 33.4149 24.9458 33.466 24.7334 33.466V33.2536C24.9381 33.2536 25.0192 33.1591 25.0192 32.8956V32.5022H25.2354V33.0097C25.2312 33.0591 25.2445 33.1084 25.2728 33.1488C25.3011 33.1892 25.3426 33.218 25.3899 33.23C25.7413 32.5848 26.1313 32.2622 26.5483 32.2622C26.9654 32.2622 27.1701 32.5455 27.1701 32.9782C27.17 33.0681 27.161 33.1577 27.143 33.2457L27.506 33.2536ZM26.9384 33.2536C26.9607 33.1702 26.9724 33.0843 26.9731 32.9979C26.9731 32.6949 26.8187 32.4864 26.5483 32.4864C26.278 32.4864 25.9305 32.7421 25.637 33.2732L26.9384 33.2536Z" fill="#074367"/>
<path d="M28.4789 33.3598C28.4789 33.4306 28.4789 33.466 28.4249 33.466C28.3388 33.477 28.2514 33.4641 28.1719 33.4288C28.0924 33.3935 28.0237 33.337 27.9731 33.2653C27.918 33.3371 27.8458 33.3933 27.7633 33.4284C27.6808 33.4636 27.5908 33.4765 27.502 33.466V33.2535C27.7491 33.2535 27.8418 33.1513 27.8418 32.8601V32.3015H28.058V32.927C28.058 33.1434 28.1777 33.2535 28.4249 33.2535C28.4596 33.2535 28.4789 33.2889 28.4789 33.3598ZM27.8109 31.8295C27.8075 31.8091 27.8086 31.7883 27.8139 31.7685C27.8192 31.7486 27.8288 31.7302 27.8418 31.7145C27.8549 31.6988 27.8711 31.6861 27.8895 31.6775C27.9078 31.6688 27.9278 31.6643 27.948 31.6643C27.9682 31.6643 27.9881 31.6688 28.0065 31.6775C28.0248 31.6861 28.0411 31.6988 28.0541 31.7145C28.0672 31.7302 28.0767 31.7486 28.082 31.7685C28.0874 31.7883 28.0884 31.8091 28.0851 31.8295C28.0858 31.8483 28.0828 31.8671 28.0762 31.8847C28.0695 31.9023 28.0594 31.9183 28.0464 31.9317C27.9731 32.0143 27.7954 31.9553 27.8109 31.8295Z" fill="#074367"/>
<path d="M29.2676 32.2699C29.3442 32.2661 29.4206 32.2796 29.4914 32.3095C29.5622 32.3395 29.6255 32.3851 29.6769 32.443C29.7779 32.5616 29.8304 32.715 29.8237 32.8718C29.8237 33.218 29.6267 33.4658 29.1749 33.4658H28.4258V33.2534H28.7849C28.7006 33.1406 28.657 33.0017 28.6613 32.86C28.6594 32.7795 28.6738 32.6996 28.7037 32.6251C28.7336 32.5506 28.7784 32.4832 28.8351 32.4273C28.9518 32.3151 29.1072 32.2544 29.2676 32.2581M29.1981 33.2416C29.2501 33.2471 29.3028 33.2408 29.3521 33.223C29.4014 33.2052 29.4462 33.1764 29.4833 33.1387C29.5203 33.101 29.5485 33.0553 29.566 33.0051C29.5835 32.9548 29.5897 32.9012 29.5843 32.8482C29.5843 32.7522 29.5468 32.6601 29.4802 32.5923C29.4136 32.5244 29.3232 32.4863 29.229 32.4863C29.1348 32.4863 29.0444 32.5244 28.9778 32.5923C28.9112 32.6601 28.8737 32.7522 28.8737 32.8482C28.8746 32.993 28.9267 33.1327 29.0205 33.2416H29.1981Z" fill="#074367"/>
<defs>
<linearGradient id="paint0_linear_335_5374" x1="15.2412" y1="16.2328" x2="15.2412" y2="8.29174" gradientUnits="userSpaceOnUse">
<stop stop-color="#064367"/>
<stop offset="1" stop-color="#188F7A"/>
</linearGradient>
</defs>
</svg>
